<?xml version="1.0" encoding="UTF-8" standalone="no"?>
<svg
   xmlns:dc="http://purl.org/dc/elements/1.1/"
   xmlns:cc="http://creativecommons.org/ns#"
   xmlns:rdf="http://www.w3.org/1999/02/22-rdf-syntax-ns#"
   xmlns:svg="http://www.w3.org/2000/svg"
   xmlns="http://www.w3.org/2000/svg"
   xmlns:sodipodi="http://sodipodi.sourceforge.net/DTD/sodipodi-0.dtd"
   xmlns:inkscape="http://www.inkscape.org/namespaces/inkscape"
   width="89mm"
   height="89mm"
   viewBox="0 0 89 89"
   version="1.1"
   id="svg8"
   inkscape:version="1.0.1 (c497b03c, 2020-09-10)"
   sodipodi:docname="pomodoro.svg"
   inkscape:export-filename="logo192.png"
   inkscape:export-xdpi="54.799999"
   inkscape:export-ydpi="54.799999">
  <defs
     id="defs2" />
  <sodipodi:namedview
     id="base"
     pagecolor="#eaeaea"
     bordercolor="#666666"
     borderopacity="1.0"
     inkscape:pageopacity="0"
     inkscape:pageshadow="2"
     inkscape:zoom="5.6"
     inkscape:cx="203.35615"
     inkscape:cy="201.29318"
     inkscape:document-units="mm"
     inkscape:current-layer="g943"
     inkscape:document-rotation="0"
     showgrid="false"
     fit-margin-top="0"
     fit-margin-left="0"
     fit-margin-right="0"
     fit-margin-bottom="0"
     inkscape:window-width="1680"
     inkscape:window-height="1005"
     inkscape:window-x="0"
     inkscape:window-y="23"
     inkscape:window-maximized="0" />
  <metadata
     id="metadata5">
    <rdf:RDF>
      <cc:Work
         rdf:about="">
        <dc:format>image/svg+xml</dc:format>
        <dc:type
           rdf:resource="http://purl.org/dc/dcmitype/StillImage" />
        <dc:title></dc:title>
      </cc:Work>
    </rdf:RDF>
  </metadata>
  <g
     inkscape:groupmode="layer"
     id="layer2"
     inkscape:label="Layer 2"
     transform="translate(-44.469162,-78.871674)">
    <g
       id="g943"
       transform="translate(0.24034367,1.2490332)">
      <path
         id="path848"
         style="fill:#000000;fill-opacity:1;stroke:none;stroke-width:0.264583px;stroke-linecap:butt;stroke-linejoin:miter;stroke-opacity:1"
         d="m 107.36736,89.856348 c 15.86934,6.590828 20.61224,10.294472 24.22636,27.447212 3.98976,18.93553 -10.71302,42.46967 -29.43165,46.58015 -14.842816,3.25938 -32.401903,1.50532 -43.521128,-8.60367 -10.920914,-9.92869 -14.926372,-18.42027 -13.848453,-38.8213 0.603679,-11.42542 8.775595,-20.328369 19.308394,-24.982917 13.990594,-6.182581 32.695679,-6.00972 43.266477,-1.619475 z"
         sodipodi:nodetypes="sssssss"
         inkscape:export-filename="logo192.png"
         inkscape:export-xdpi="54.795506"
         inkscape:export-ydpi="54.795506" />
      <path
         id="path898"
         style="fill:#818181;fill-opacity:1;stroke:none;stroke-width:0.264583px;stroke-linecap:butt;stroke-linejoin:miter;stroke-opacity:1"
         d="m 85.659882,93.945238 c -1.131203,0.537507 -11.662526,-4.223101 -11.477205,-8.280074 0.663649,-3.076638 2.242314,-7.245178 8.462314,-5.599711 -2.814508,-2.239976 -10.851808,0.527639 -10.873395,6.39775 -0.01403,3.815515 3.266206,3.992148 5.671474,6.226028 3.155783,2.930918 5.747493,4.839617 3.920516,5.380075 -3.292523,0.973999 -21.562167,-4.631602 -26.069129,-3.65637 -5.254293,1.136942 -5.218982,6.787214 -4.613839,7.383204 0.376403,0.37071 -0.862195,-5.742866 4.907551,-5.953171 3.677009,-0.134025 9.81641,1.402293 15.146264,2.593098 6.628183,1.480879 12.223478,2.792583 12.837015,3.964603 0.659149,1.25915 0.04927,5.18055 1.096282,8.00268 0.49535,1.33518 2.295074,2.00941 3.048865,2.80666 -0.86103,-3.71842 -0.129301,-7.14786 1.184785,-8.53453 2.517467,-2.6565 3.606817,-2.81125 5.008661,-2.21046 1.446885,0.6201 9.673799,5.18869 17.616199,9.75675 7.10215,4.08479 13.97679,8.16915 15.57272,9.42949 -0.54531,-2.99329 -10.70555,-8.13999 -14.04378,-11.00191 -7.3273,-6.28181 -14.013061,-8.36267 -15.126697,-10.60426 0,0 1.340952,-3.990165 8.987427,-4.289373 7.48622,-0.292938 24.49527,1.069414 20.67817,5.911003 5.77547,-4.537437 -8.07768,-6.847711 -16.00319,-8.073013 -6.14476,-0.949993 -11.57544,0.792437 -11.68733,0.460117 -0.34595,-1.027522 4.63833,-3.644965 9.80899,-4.925841 4.62088,-1.144682 9.3906,-1.221916 10.63784,1.85702 0.12089,-4.20813 -8.21838,-4.803765 -14.44272,-2.954882 -7.857805,2.334087 -14.011204,7.770651 -14.088602,5.909654 -0.181503,-4.3641 8.599362,-15.609188 14.241312,-13.695729 -3.6319,-3.914182 -10.007214,1.318045 -14.170138,6.009127 -3.474819,3.915676 -4.962399,7.089575 -6.23036,7.692065 z"
         sodipodi:nodetypes="sccsssscsssscssscssscssscsscss" />
      <path
         id="path909"
         style="fill:#000000;fill-opacity:1;stroke:none;stroke-width:0.264583px;stroke-linecap:butt;stroke-linejoin:miter;stroke-opacity:0.950292"
         d="m 86.060787,99.825168 c 1.683791,0.268192 3.410657,0.643192 5.115215,0.334692 0.733356,-0.13546 1.495696,-0.543495 1.758613,-1.28413 -0.708989,-2.503762 -0.698182,-5.16346 -0.232087,-7.70987 0.151973,-1.199972 -0.734962,-2.296448 -1.806076,-2.727198 -0.90234,-0.400915 -2.13459,-0.362485 -2.764519,0.492775 -0.339392,0.435805 -0.447943,0.992844 -0.42632,1.533454 -0.109106,2.459422 -0.758999,4.869257 -1.704974,7.133299 -0.191904,0.725624 -0.222964,1.520255 0.06015,2.226978 z" />
      <path
         id="path924"
         style="fill:none;stroke:#ffffff;stroke-width:0.265;stroke-linecap:round;stroke-linejoin:miter;stroke-opacity:1;stroke-miterlimit:4;stroke-dasharray:none"
         d="m 132.24442,125.4881 c -2.34341,12.01474 -19.21808,19.67904 -39.072941,20.289 -17.437276,0.53569 -47.63297,-5.64666 -48.570289,-20.47794"
         sodipodi:nodetypes="csc" />
    </g>
  </g>
</svg>
